<svg xmlns="http://www.w3.org/2000/svg" width="1440" height="900" viewBox="0 0 1440 900">
  <!-- Plan-only: derived from `docs/ui/products.svg`, with watermark overlays inserted -->
  <defs>
    <linearGradient id="sparkFill" x1="0" y1="0" x2="0" y2="1">
      <stop offset="0" stop-color="rgba(73, 194, 255, 0.45)"/>
      <stop offset="1" stop-color="rgba(73, 194, 255, 0.00)"/>
    </linearGradient>

    <style>
      .bg { fill: #0b1220; }
      .surface { fill: #0f1b33; stroke: none; }
      .surface2 { fill: #0c172e; stroke: none; }
      .line { stroke: rgba(27, 42, 74, 0.55); stroke-width: 1; }
      .title { fill: #ffffff; font: 22px Inter, Arial, sans-serif; font-weight: 800; }
      .h2 { fill: #e6eefc; font: 16px Inter, Arial, sans-serif; font-weight: 800; }
      .text { fill: #e6eefc; font: 14px Inter, Arial, sans-serif; }
      .muted { fill: #9bb0d0; font: 14px Inter, Arial, sans-serif; }

      .navLabel { fill: #cfe0ff; font: 14px Inter, Arial, sans-serif; font-weight: 650; }
      .navLabelActive { fill: #ffffff; font: 14px Inter, Arial, sans-serif; font-weight: 850; }
      .navAccent { fill: #2a8a55; }

      .pill { fill: rgba(16, 31, 58, 0.62); stroke: rgba(27, 42, 74, 0.45); stroke-width: 1; }
      .pillOn { fill: rgba(23, 52, 40, 0.62); stroke: rgba(42, 138, 85, 0.75); stroke-width: 1; }
      .badgeText { fill: #e6eefc; font: 12px Inter, Arial, sans-serif; font-weight: 700; }
      .badgeTextCenter { fill: #e6eefc; font: 12px Inter, Arial, sans-serif; font-weight: 700; text-anchor: middle; dominant-baseline: middle; }

      /* Trend background (no extra layout space; clipped to card) */
      .trendGrid { stroke: rgba(27, 42, 74, 0.22); stroke-width: 1; }
      .sparkArea { fill: url(#sparkFill); }
      .sparkLine { stroke: rgba(73, 194, 255, 0.75); stroke-width: 2.5; fill: none; }

      /* Plan-only legend */
      .legend { fill: #9bb0d0; font: 12px Inter, Arial, sans-serif; }
    </style>

    <clipPath id="clipProdCardA">
      <rect x="336" y="368" width="504" height="208" rx="14"/>
    </clipPath>
    <clipPath id="clipProdCardB">
      <rect x="864" y="368" width="504" height="208" rx="14"/>
    </clipPath>

    <!-- Iconify: flagpack:us (viewBox 0 0 32 24) -->
    <symbol id="flagpack-us" viewBox="0 0 32 24">
      <g fill="none">
        <path fill="#f7fcff" fill-rule="evenodd" d="M0 0h32v24H0z" clip-rule="evenodd"/>
        <path fill="#e31d1c" fill-rule="evenodd" d="M0 14.667v2h32v-2zm0 3.666v2h32v-2zm0-11v2h32v-2zM0 22v2h32v-2zm0-11v2h32v-2zM0 0v2h32V0zm0 3.667v2h32v-2z" clip-rule="evenodd"/>
        <path fill="#2e42a5" d="M0 0h20v13H0z"/>
        <path fill="#f7fcff" fill-rule="evenodd" d="m1.722 2.939l-.726.509l.245-.906l-.645-.574h.843l.282-.74l.331.74h.718l-.564.574l.218.906zm4 0l-.726.509l.245-.906l-.644-.574h.842l.282-.74l.331.74h.718l-.564.574l.218.906zm3.274.509l.726-.51l.702.51l-.218-.906l.564-.574h-.718l-.331-.74l-.282.74h-.842l.644.574zm4.726-.51l-.726.51l.245-.906l-.644-.574h.842l.282-.74l.331.74h.718l-.564.574l.218.906zM.996 7.449l.726-.51l.702.51l-.218-.906l.564-.574h-.718l-.331-.74l-.282.74H.596l.645.574zm4.726-.51l-.726.51l.245-.906l-.644-.574h.842l.282-.74l.331.74h.718l-.564.574l.218.906zm3.274.51l.726-.51l.702.51l-.218-.906l.564-.574h-.718l-.331-.74l-.282.74h-.842l.644.574zm4.726-.51l-.726.51l.245-.906l-.644-.574h.842l.282-.74l.331.74h.718l-.564.574l.218.906zM.996 11.449l.726-.51l.702.51l-.218-.906l.564-.574h-.718l-.331-.74l-.282.74H.596l.645.574zm4.726-.51l-.726.51l.245-.906l-.644-.574h.842l.282-.74l.331.74h.718l-.564.574l.218.906zm3.274.51l.726-.51l.702.51l-.218-.906l.564-.574h-.718l-.331-.74l-.282.74h-.842l.644.574zm4.726-.51l-.726.51l.245-.906l-.644-.574h.842l.282-.74l.331.74h.718l-.564.574l.218.906zm3.274-7.49l.726-.51l.702.51l-.218-.906l.564-.574h-.718l-.331-.74l-.282.74h-.843l.645.574zm.726 3.49l-.726.51l.245-.906l-.645-.574h.843l.282-.74l.331.74h.718l-.564.574l.218.906zm-.726 4.51l.726-.51l.702.51l-.218-.906l.564-.574h-.718l-.331-.74l-.282.74h-.843l.645.574zM3.722 4.938l-.726.51l.245-.906l-.645-.574h.843l.282-.74l.331.74h.718l-.564.574l.218.906zm3.274.51l.726-.51l.702.51l-.218-.906l.564-.574h-.718l-.331-.74l-.282.74h-.843l.645.574zm4.726-.51l-.726.51l.245-.906l-.644-.574h.842l.282-.74l.331.74h.718l-.564.574l.218.906zm-8.726 4.51l.726-.51l.702.51l-.218-.906l.564-.574h-.718l-.331-.74l-.282.74h-.843l.645.574zm4.726-.51l-.726.51l.245-.906l-.644-.574h.842l.282-.74l.331.74h.718l-.564.574l.218.906zm3.274.51l.726-.51l.702.51l-.218-.906l.564-.574h-.718l-.331-.74l-.282.74h-.842l.644.574zm4.726-4.51l-.726.51l.245-.906l-.644-.574h.842l.282-.74l.331.74h.718l-.564.574l.218.906zm-.726 4.51l.726-.51l.702.51l-.218-.906l.564-.574h-.718l-.331-.74l-.282.74h-.842l.644.574z" clip-rule="evenodd"/>
      </g>
    </symbol>

    <!-- Watermark mask: final alpha top-left 0.4 -> bottom-right 0 (applied over the icon region only) -->
    <linearGradient id="wmProdA" gradientUnits="userSpaceOnUse" x1="336" y1="368" x2="528" y2="512">
      <stop offset="0" stop-color="#ffffff" stop-opacity="0.4"/>
      <stop offset="1" stop-color="#ffffff" stop-opacity="0"/>
    </linearGradient>
    <mask id="maskProdA" maskUnits="userSpaceOnUse" x="336" y="368" width="192" height="144" style="mask-type:alpha">
      <rect x="336" y="368" width="192" height="144" fill="url(#wmProdA)"/>
    </mask>

    <linearGradient id="wmProdB" gradientUnits="userSpaceOnUse" x1="864" y1="368" x2="1056" y2="512">
      <stop offset="0" stop-color="#ffffff" stop-opacity="0.4"/>
      <stop offset="1" stop-color="#ffffff" stop-opacity="0"/>
    </linearGradient>
    <mask id="maskProdB" maskUnits="userSpaceOnUse" x="864" y="368" width="192" height="144" style="mask-type:alpha">
      <rect x="864" y="368" width="192" height="144" fill="url(#wmProdB)"/>
    </mask>
  </defs>

  <rect class="bg" x="0" y="0" width="1440" height="900"/>

  <!-- Top bar -->
  <rect class="surface" x="24" y="24" width="1392" height="64" rx="14"/>
  <text class="title" x="48" y="58">Catnap • 全部产品</text>
  <text class="muted" x="48" y="76">分组：国家地区 → 可用区域 → 配置 • 点击切换监控（用户隔离）</text>
  <rect class="pill" x="1248" y="40" width="96" height="32" rx="10"/>
  <text class="badgeText" x="1296" y="61" text-anchor="middle">刷新：手动</text>

  <!-- Left nav -->
  <rect class="surface" x="24" y="112" width="240" height="764" rx="14"/>
  <text class="h2" x="48" y="148">导航</text>
  <text class="navLabel" x="56" y="194">库存监控</text>
  <rect class="navAccent" x="40" y="216" width="4" height="24" rx="2"/>
  <text class="navLabelActive" x="56" y="234">全部产品</text>
  <text class="navLabel" x="56" y="274">系统设置</text>
  <text class="navLabel" x="56" y="314">日志</text>

  <!-- Main -->
  <rect class="surface" x="288" y="112" width="1128" height="764" rx="14"/>

  <!-- Block A: filters -->
  <rect class="surface2" x="312" y="136" width="1080" height="104" rx="14"/>
  <text class="h2" x="336" y="172">筛选与分组</text>
  <rect class="pill" x="336" y="192" width="200" height="32" rx="10"/>
  <text class="badgeText" x="352" y="213">国家地区：全部</text>
  <rect class="pill" x="560" y="192" width="200" height="32" rx="10"/>
  <text class="badgeText" x="576" y="213">可用区域：全部</text>
  <rect class="pill" x="784" y="192" width="312" height="32" rx="10"/>
  <text class="muted" x="800" y="213">搜索：配置名 / 规格关键字…</text>
  <rect class="pill" x="1120" y="192" width="248" height="32" rx="10"/>
  <text class="badgeText" x="1136" y="213">仅看已监控</text>

  <!-- Block B: group Fremont -->
  <rect class="surface2" x="312" y="264" width="1080" height="336" rx="14"/>
  <text class="h2" x="336" y="300">美国 / 弗里蒙特</text>
  <text class="muted" x="336" y="324">配置卡片：规格 / 价格 / 库存 / 监控开关</text>
  <line class="line" x1="312" y1="344" x2="1392" y2="344"/>

  <!-- Cards -->
  <rect class="surface" x="336" y="368" width="504" height="208" rx="14"/>
  <!-- Watermark (US flag) -->
  <g clip-path="url(#clipProdCardA)">
    <g mask="url(#maskProdA)">
      <use href="#flagpack-us" x="336" y="368" width="192" height="144"/>
    </g>
  </g>
  <!-- Trend background -->
  <g clip-path="url(#clipProdCardA)" opacity="0.18">
    <path class="trendGrid" d="M336 408H840"/>
    <path class="trendGrid" d="M336 448H840"/>
    <path class="trendGrid" d="M336 488H840"/>
    <path class="trendGrid" d="M336 528H840"/>
    <path class="sparkArea" d="M348 556H420V540H520V556H640V520H720V536H828V564H348Z"/>
    <path class="sparkLine" d="M348 556H420V540H520V556H640V520H720V536H828"/>
  </g>
  <text class="h2" x="360" y="400">弗里蒙特 1号</text>
  <text class="muted" x="360" y="424">CPU 1核 • RAM 256M • 端口 20条</text>
  <text class="text" x="360" y="448">¥ 1.00 / 月</text>
  <rect class="pillOn" x="360" y="464" width="96" height="32" rx="10"/>
  <text class="badgeTextCenter" x="408" y="480">库存 4</text>
  <rect class="pillOn" x="720" y="464" width="96" height="32" rx="10"/>
  <text class="badgeTextCenter" x="768" y="480">监控：开</text>
  <text class="muted" x="360" y="536">变化检测：补货 / 价格 / 配置</text>

  <rect class="surface" x="864" y="368" width="504" height="208" rx="14"/>
  <!-- Watermark (US flag) -->
  <g clip-path="url(#clipProdCardB)">
    <g mask="url(#maskProdB)">
      <use href="#flagpack-us" x="864" y="368" width="192" height="144"/>
    </g>
  </g>
  <!-- Trend background -->
  <g clip-path="url(#clipProdCardB)" opacity="0.18">
    <path class="trendGrid" d="M864 408H1368"/>
    <path class="trendGrid" d="M864 448H1368"/>
    <path class="trendGrid" d="M864 488H1368"/>
    <path class="trendGrid" d="M864 528H1368"/>
    <path class="sparkArea" d="M876 556H980V556H1120V540H1240V556H1356V564H876Z"/>
    <path class="sparkLine" d="M876 556H980V556H1120V540H1240V556H1356"/>
  </g>
  <text class="h2" x="888" y="400">弗里蒙特 2号</text>
  <text class="muted" x="888" y="424">CPU 1核 • RAM 512M • 流量 2TB</text>
  <text class="text" x="888" y="448">¥ 1.50 / 月</text>
  <rect class="pillOn" x="888" y="464" width="96" height="32" rx="10"/>
  <text class="badgeTextCenter" x="936" y="480">库存 1</text>
  <rect class="pill" x="1248" y="464" width="96" height="32" rx="10"/>
  <text class="badgeTextCenter" x="1296" y="480">监控：关</text>
  <text class="muted" x="888" y="536">点击开关后立即持久化</text>

  <!-- Legend (plan-only quant) -->
  <text class="legend" x="336" y="612">国旗水印：top-left alpha=0.4 → bottom-right alpha=0（仅在 icon 区域渐变；贴边 offset=0）</text>
  <rect x="336" y="624" width="220" height="10" fill="url(#wmProdA)"/>
  <text class="legend" x="336" y="648">0.4</text>
  <text class="legend" x="548" y="648" text-anchor="end">0</text>
</svg>
